PathFileType	4	(X/Y/Z)	TVC_36_BWA_04_walk_RCNL2025.trc
DataRate	CameraRate	NumFrames	NumMarkers	Units	OrigDataRate	OrigDataStartFrame	OrigNumFrames
100	100	9	27	mm	100	435	695
Frame#	Time	R_Shoulder			L_Shoulder			C7			J_Notch			R_Elbow			L_Elbow			R_Wrist			L_Wrist			R_Asis			L_Asis			R_Psis			L_Psis			Sacral			Thoracic			Sternum			R_Thigh_Lateral			R_Knee_Lateral			R_Shank_Lateral			R_Ankle_Lateral			R_Heel			R_Toe			L_Thigh_Lateral			L_Knee_Lateral			L_Shank_Lateral			L_Ankle_Lateral			L_Heel			L_Toe		
		X1	Y1	Z1	X2	Y2	Z2	X3	Y3	Z3	X4	Y4	Z4	X5	Y5	Z5	X6	Y6	Z6	X7	Y7	Z7	X8	Y8	Z8	X9	Y9	Z9	X10	Y10	Z10	X11	Y11	Z11	X12	Y12	Z12	X13	Y13	Z13	X14	Y14	Z14	X15	Y15	Z15	X16	Y16	Z16	X17	Y17	Z17	X18	Y18	Z18	X19	Y19	Z19	X20	Y20	Z20	X21	Y21	Z21	X22	Y22	Z22	X23	Y23	Z23	X24	Y24	Z24	X25	Y25	Z25	X26	Y26	Z26	X27	Y27	Z27
435	4.34000000	1028.679565	1412.934326	404.920319	919.469177	1376.562500	70.186729	939.632507	1449.164917	249.552444	1084.827515	1321.244385	219.559662	956.541443	1140.442261	523.352051	894.539429	1077.685547	-22.846746	1018.286194	923.509827	536.854736	1071.525940	960.932159	23.820801	1082.649780	906.851379	355.656067	1025.091919	934.401978	101.913803	895.912964	921.204407	308.517700	877.245422	918.478027	226.511719	886.579193	919.841217	267.514709	892.218201	1156.684204	272.618744	1121.112549	1171.883423	202.264084	1027.643188	626.826904	410.117096	1030.243652	454.556122	315.357788	962.987671	257.759552	354.904358	925.202515	72.319359	277.994934	879.782898	60.568893	226.049698	1048.098633	44.551762	253.921951	1096.576416	754.035583	-29.846928	1217.597900	584.757324	-18.366047	1182.330444	388.861847	-88.333443	1244.445801	177.491653	-63.476189	1200.558594	152.339172	-22.167143	1373.406738	167.864487	-28.321815
436	4.35000000	1028.900024	1412.226074	405.288849	920.783569	1376.134888	70.305016	940.499023	1448.675903	249.415421	1085.959351	1321.057617	219.969254	957.058228	1139.371460	523.112427	895.223328	1077.224854	-22.445244	1020.543976	923.012726	536.689667	1071.834534	960.170746	25.648549	1084.871826	906.559204	355.894928	1028.321533	933.593933	102.074722	898.227051	920.542664	307.951660	879.811462	917.767883	225.742599	889.019257	919.155273	266.847130	894.013916	1155.344116	271.926453	1122.591675	1171.684692	202.660751	1031.129028	627.416382	410.457001	1031.734131	454.186829	315.212097	963.345581	257.537079	354.809296	925.183167	72.328827	277.916290	879.873779	60.655273	225.843124	1048.091553	44.518795	254.120529	1101.114746	753.806702	-29.481339	1222.118652	584.550781	-17.232298	1187.862915	388.306427	-86.733543	1250.425415	176.819427	-60.929829	1206.471680	151.946060	-19.804970	1379.516724	167.935989	-25.306694
437	4.36000000	1029.184204	1411.516357	405.802948	922.220093	1375.661499	70.486404	941.559692	1448.166138	249.551941	1087.148682	1320.688721	220.492523	957.669312	1138.007080	522.886108	896.104065	1076.671997	-21.896374	1022.856934	922.355347	536.346771	1072.153381	959.648682	27.519233	1086.955688	906.331665	355.917358	1031.000366	932.187012	102.153946	900.954590	919.368530	307.315399	882.552551	917.052673	225.047791	891.753571	918.210602	266.181595	895.722534	1154.188354	271.350830	1124.239014	1171.501465	203.137512	1035.250000	627.845154	411.102875	1033.066895	453.802887	315.177338	963.727905	257.542847	354.891174	925.149231	72.416084	277.870300	879.785278	60.668438	225.814453	1047.995117	44.490673	254.314819	1105.334106	752.581238	-28.402882	1226.460571	584.222839	-15.848484	1193.044800	387.445648	-85.033188	1255.915771	176.063858	-58.550121	1212.088013	151.315552	-17.521235	1384.859253	167.482483	-22.201752
438	4.37000000	1029.545776	1410.696777	406.247711	923.871338	1375.095947	70.554733	941.717407	1447.798462	250.959000	1088.332275	1320.246094	220.936279	958.255371	1136.678833	522.466370	897.066284	1076.119629	-21.216108	1024.712128	921.230194	535.833862	1072.623108	958.930939	29.823386	1089.358032	905.892090	355.739349	1033.951660	931.205872	101.606369	903.227905	918.526550	306.819427	885.235107	916.115417	224.190155	894.231506	917.320984	265.504791	897.471008	1153.447998	270.902557	1126.040771	1171.232056	203.562210	1038.032715	627.598633	411.336914	1034.630859	453.309540	315.189484	963.917786	257.354218	355.025726	925.126465	72.371010	277.869202	879.861084	60.774059	225.745605	1047.965454	44.449471	254.514664	1109.627808	752.105957	-27.861547	1230.630859	583.127075	-13.980566	1197.999878	386.495544	-83.246063	1261.100464	175.192047	-56.060658	1217.071899	151.009964	-15.516119	1389.781006	166.536743	-18.931890
439	4.38000000	1029.486938	1409.681274	406.686554	925.433350	1374.564087	70.724762	943.681824	1446.775146	250.210312	1089.753784	1319.766113	221.569931	959.034973	1135.274170	522.106628	898.314941	1075.631470	-20.627989	1026.279297	920.047119	535.304504	1072.948059	957.775696	32.338798	1091.702881	905.333313	355.654755	1036.227051	930.520447	100.993118	905.699951	917.648560	306.125793	888.200378	915.041504	223.335419	896.950165	916.345032	264.730606	898.980469	1152.528809	270.767181	1127.505493	1170.788574	203.645844	1040.996704	627.424866	411.672089	1036.376099	452.888916	315.302734	964.115601	257.251801	355.370087	924.938049	72.376205	278.011475	879.790100	60.789158	225.716141	1047.824219	44.396904	254.890457	1113.918701	750.581116	-26.648991	1234.714478	582.090149	-11.958034	1202.528931	385.240875	-81.304832	1265.639648	173.862152	-53.514675	1221.467773	150.113068	-13.243361	1394.332764	165.292328	-15.474000
440	4.39000000	1030.511963	1408.905762	407.092804	927.141052	1374.095215	70.864487	944.999146	1446.405884	250.368210	1091.338867	1319.381836	222.199127	959.960022	1133.901978	521.767700	899.571533	1075.137817	-20.257259	1028.220428	919.050140	534.822723	1073.411377	956.877411	34.391924	1093.881958	904.886414	355.569885	1038.284668	929.382935	100.594460	908.082947	916.828491	305.588379	890.899414	913.987671	222.712280	899.491180	915.408081	264.150330	901.133484	1151.358765	270.048035	1129.729980	1170.576782	204.293488	1042.271973	626.766968	411.103912	1038.469360	452.620789	315.574280	964.184753	257.304382	355.804810	924.695557	72.321007	278.084503	879.762878	60.712692	225.686661	1047.697021	44.231449	255.270340	1118.358521	749.029480	-25.583467	1238.379150	580.781921	-10.189450	1206.803711	383.530609	-79.357124	1270.106567	171.919662	-50.427872	1225.325073	148.422638	-10.937696	1398.251953	163.538177	-12.186610
441	4.40000000	1031.387451	1407.927246	407.517090	928.984314	1373.633179	70.983871	946.118652	1445.848022	250.949615	1092.637573	1318.892456	222.508133	961.184143	1132.429077	521.394653	901.040527	1074.550415	-19.840338	1030.876923	918.318787	534.259888	1074.467285	956.555267	36.607832	1096.208984	904.535950	355.303192	1041.165161	928.449097	100.332916	910.870972	915.978882	304.843872	893.535767	913.194641	222.078812	902.203369	914.586761	263.461342	903.269592	1150.360229	269.461456	1131.588501	1170.139282	204.518372	1043.010986	626.058350	410.679718	1040.026489	452.301849	315.989807	964.335510	257.388794	356.363678	924.560791	72.283562	278.178833	879.707092	60.698311	225.725388	1047.619263	44.168411	255.662766	1122.448364	747.522644	-24.535133	1241.672119	578.826111	-8.431955	1210.508423	381.090027	-77.233574	1273.840332	170.721146	-48.095844	1228.814697	146.357086	-8.001742	1401.685303	161.502029	-8.842619
442	4.41000000	1032.455566	1406.933350	408.071747	930.796448	1373.064575	71.220345	947.511902	1444.828003	251.085968	1094.360229	1318.282837	222.931290	962.531860	1130.980225	520.887939	902.760315	1073.931519	-19.411482	1034.042175	917.517792	533.856140	1075.325623	955.749298	38.731948	1098.932983	904.207581	355.060730	1044.442627	927.537292	100.095688	913.422729	915.291443	304.321106	896.540405	912.316345	221.471710	904.981567	913.803894	262.896408	905.449341	1149.977905	269.136383	1133.656860	1169.717896	204.779907	1043.630127	625.229797	410.084076	1041.463745	451.863129	316.233917	964.632507	257.541840	356.860352	924.377808	72.243851	278.318329	879.705872	60.717827	225.751419	1047.494141	44.027393	256.077972	1125.970947	745.597595	-23.777977	1244.415894	576.201782	-6.117994	1213.937866	378.905884	-75.248558	1277.109863	168.004959	-45.239525	1231.986816	143.730301	-4.981156	1405.360352	159.543839	-5.136033
443	4.42000000	1033.535156	1405.947998	408.466125	932.479736	1372.592407	71.523781	948.321106	1444.068726	251.956375	1096.051392	1317.759888	223.212128	964.130127	1129.557983	520.576599	904.534790	1073.343506	-19.196533	1035.974060	916.094086	533.022552	1076.410339	955.118530	40.939306	1101.655640	903.861267	355.162567	1047.718872	926.607666	100.202713	915.972351	914.757507	303.696899	898.235901	911.552856	221.383621	907.104126	913.155182	262.540260	907.574646	1149.008179	268.575684	1135.605957	1169.113037	204.971939	1047.991699	626.216858	411.093018	1042.730957	451.232910	316.368225	964.641479	257.606537	357.369415	924.364807	72.234161	278.353485	879.690674	60.812977	225.799240	1047.398071	43.934692	256.300812	1129.749268	743.857300	-22.932835	1246.951782	573.873962	-4.371848	1217.021362	375.920532	-72.971603	1280.595093	165.739777	-42.076656	1234.978149	141.715820	-2.218060	1408.041138	156.700577	-1.640965
